<svg width="642" height="220" viewBox="0 0 642 220" fill="none" xmlns="http://www.w3.org/2000/svg">
<path d="M0.890625 185.625V139.219L83.0181 0H122.088V61.875H99.7625L55.5094 137.5V139.219H176.707V185.625H0.890625ZM100.161 220V171.445L101.357 151.25V0H153.185V220H100.161Z" fill="#1E1E1F" style="fill:#1E1E1F;fill:color(display-p3 0.1176 0.1176 0.1216);fill-opacity:1;"/>
<path d="M382.71 215.776H259.304L197.602 110L259.304 4.22415H382.71L444.412 110L382.71 215.776Z" fill="white" fill-opacity="0.3" style="fill:white;fill-opacity:0.3;"/>
<path d="M385.135 0L449.302 110L385.135 220H256.878L192.711 110L256.878 0H385.135ZM202.49 110L261.73 211.552H380.283L439.522 110L380.283 8.44828H261.73L202.49 110Z" fill="#00854B" style="fill:#00854B;fill:color(display-p3 0.0000 0.5216 0.2941);fill-opacity:1;"/>
<path d="M373.697 200.291H268.357L215.688 110L268.357 19.7088H373.697L426.367 110L373.697 200.291Z" fill="#00854B" style="fill:#00854B;fill:color(display-p3 0.0000 0.5216 0.2941);fill-opacity:1;"/>
<path d="M368.845 28.157L416.586 110L368.845 191.843H273.209L225.468 110L273.209 28.157H368.845Z" stroke="white" stroke-opacity="0.5" style="stroke:white;stroke-opacity:0.5;" stroke-width="16.8965"/>
<path d="M465.297 185.625V139.219L547.424 0H586.495V61.875H564.169L519.916 137.5V139.219H641.113V185.625H465.297ZM564.567 220V171.445L565.763 151.25V0H617.591V220H564.567Z" fill="#1E1E1F" style="fill:#1E1E1F;fill:color(display-p3 0.1176 0.1176 0.1216);fill-opacity:1;"/>
</svg>
