<svg width="163" height="30" viewBox="0 0 163 30" fill="none" xmlns="http://www.w3.org/2000/svg">
<g clip-path="url(#clip0_4231_7652)">
<path d="M3.33008 0.373224V0.386776L3.34413 0.373224H3.33008Z" fill="#1E1E1F" style="fill:#1E1E1F;fill:color(display-p3 0.1176 0.1176 0.1216);fill-opacity:1;"/>
<path d="M48.708 0.245675H57.8899V2.54861L52.7143 7.82828H58.0984V10.1336H48.502V7.77534L53.5889 2.54861H48.708V0.245675Z" fill="#1E1E1F" style="fill:#1E1E1F;fill:color(display-p3 0.1176 0.1176 0.1216);fill-opacity:1;"/>
<path d="M59.7695 0.245675H68.4627V2.54861H63.2727V3.97562H67.648V6.28096H63.2727V7.82828H68.6687V10.1336H59.7695V0.245675Z" fill="#1E1E1F" style="fill:#1E1E1F;fill:color(display-p3 0.1176 0.1176 0.1216);fill-opacity:1;"/>
<path d="M70.2344 0.245675H75.3932C77.2175 0.245675 78.4842 0.528829 79.1935 1.09514C79.7254 1.52589 79.9914 2.17803 79.9914 3.05637C80.0212 3.63804 79.8456 4.21161 79.4954 4.67588C79.1647 5.07856 78.7091 5.35819 78.2015 5.47C79.0209 5.77321 79.5241 6.10288 79.711 6.46625C79.9278 6.98384 80.0237 7.54443 79.9914 8.10502V8.86785C79.9783 9.12168 80.0058 9.37597 80.0728 9.62106C80.0891 9.68483 80.1263 9.74118 80.1786 9.78095C80.2308 9.82072 80.2949 9.84155 80.3604 9.84005V10.1288H76.8429C76.722 9.56329 76.6601 8.98664 76.6584 8.40823C76.612 7.48898 76.3924 6.96518 75.9994 6.83684C75.7647 6.76971 75.5239 6.72618 75.2806 6.70689C75.0146 6.68523 74.6696 6.67321 74.2455 6.67321H73.7279V10.1288H70.2344V0.245675ZM73.7231 2.54861V4.50984H75.1872C75.7974 4.50984 76.2263 4.40957 76.4739 4.20904C76.5679 4.12818 76.6422 4.02663 76.6908 3.91227C76.7394 3.79791 76.7611 3.67383 76.7542 3.54968C76.76 3.40306 76.7274 3.25748 76.6597 3.12744C76.592 2.9974 76.4916 2.88744 76.3684 2.80851C76.0768 2.62525 75.7369 2.53467 75.3932 2.54861H73.7231Z" fill="#1E1E1F" style="fill:#1E1E1F;fill:color(display-p3 0.1176 0.1176 0.1216);fill-opacity:1;"/>
<path d="M81.8242 0.245683H85.1141L88.8976 5.63364L88.7802 3.43899V0.245683H92.1347V10.1336H88.8449L85.0614 4.74327L85.1788 6.99326V10.1336H81.8242V0.245683Z" fill="#1E1E1F" style="fill:#1E1E1F;fill:color(display-p3 0.1176 0.1176 0.1216);fill-opacity:1;"/>
<path d="M59.0684 19.6534H62.3654L66.1513 25.0775L66.0315 22.8708V19.6534H69.386V29.6088H66.0914L62.3055 24.1823L62.4253 26.4467V29.6088H59.0708L59.0684 19.6534Z" fill="#1E1E1F" style="fill:#1E1E1F;fill:color(display-p3 0.1176 0.1176 0.1216);fill-opacity:1;"/>
<path d="M76.9125 26.2951V24.1293H81.7168V29.6352H79.4548L79.3086 28.6726C79.0062 28.9895 78.6511 29.2509 78.2592 29.4451C77.5965 29.7517 76.8728 29.9024 76.1434 29.8855C74.5076 29.8855 73.2169 29.393 72.2712 28.4079C71.3847 27.4871 70.9414 26.2839 70.9414 24.7983C70.9414 23.2325 71.3895 21.9652 72.2856 20.9962C73.2824 19.9181 74.6913 19.3791 76.5124 19.3791C77.883 19.3791 79.0171 19.6999 79.9149 20.3416C80.3579 20.6617 80.7327 21.0676 81.0171 21.5355C81.3015 22.0033 81.4897 22.5236 81.5706 23.0657H78.2448C78.1458 22.7207 77.9443 22.4143 77.6673 22.1874C77.3202 21.9206 76.8917 21.7828 76.4549 21.7975C76.1646 21.787 75.8764 21.85 75.6167 21.9808C75.3571 22.1116 75.1344 22.3059 74.9693 22.5459C74.6099 23.044 74.4302 23.7708 74.4302 24.7309C74.4302 25.5347 74.5811 26.1748 74.8878 26.6152C75.2616 27.1686 75.8526 27.4454 76.6609 27.4454C77.0635 27.4487 77.4585 27.3359 77.7991 27.1205C78.1172 26.939 78.3513 26.639 78.4508 26.2855L76.9125 26.2951Z" fill="#1E1E1F" style="fill:#1E1E1F;fill:color(display-p3 0.1176 0.1176 0.1216);fill-opacity:1;"/>
<path d="M83.7852 19.6534H87.2883V29.6088H83.7852V19.6534Z" fill="#1E1E1F" style="fill:#1E1E1F;fill:color(display-p3 0.1176 0.1176 0.1216);fill-opacity:1;"/>
<path d="M89.4258 19.6534H92.7204L96.5063 25.0775L96.3889 22.8708V19.6534H99.7435V29.6088H96.4416L92.6558 24.1823L92.7732 26.4467V29.6088H89.4258V19.6534Z" fill="#1E1E1F" style="fill:#1E1E1F;fill:color(display-p3 0.1176 0.1176 0.1216);fill-opacity:1;"/>
<path d="M101.836 19.6534H110.529V21.9732H105.341V23.417H109.717V25.7368H105.341V27.2986H110.738V29.6184H101.836V19.6534Z" fill="#1E1E1F" style="fill:#1E1E1F;fill:color(display-p3 0.1176 0.1176 0.1216);fill-opacity:1;"/>
<path d="M112.525 19.6534H121.219V21.9732H116.024V23.417H120.401V25.7368H116.024V27.2986H121.42V29.6184H112.525V19.6534Z" fill="#1E1E1F" style="fill:#1E1E1F;fill:color(display-p3 0.1176 0.1176 0.1216);fill-opacity:1;"/>
<path d="M122.994 19.6534H128.151C129.976 19.6534 131.243 19.9382 131.951 20.5077C132.486 20.9408 132.753 21.5994 132.751 22.4834C132.782 23.0681 132.606 23.6449 132.255 24.1125C131.925 24.5167 131.469 24.7987 130.961 24.9138C131.778 25.217 132.28 25.5507 132.468 25.9149C132.686 26.4365 132.783 27.001 132.751 27.5657V28.3382C132.739 28.5934 132.765 28.8491 132.83 29.0962C132.846 29.1606 132.884 29.2176 132.937 29.2578C132.989 29.298 133.054 29.3191 133.12 29.3176V29.6088H129.6C129.481 29.0389 129.419 28.4584 129.416 27.8761C129.373 26.9489 129.153 26.4219 128.757 26.2951C128.522 26.2269 128.281 26.1826 128.038 26.1628C127.772 26.1411 127.427 26.1291 127.005 26.1291H126.485V29.6088H122.994V19.6534ZM126.48 21.9732V23.9465H127.945C128.555 23.9465 128.984 23.8454 129.231 23.6432C129.326 23.5615 129.4 23.4591 129.448 23.344C129.497 23.2288 129.519 23.104 129.512 22.9791C129.517 22.8321 129.485 22.6861 129.418 22.5554C129.351 22.4246 129.251 22.3136 129.128 22.2331C128.836 22.0498 128.495 21.9592 128.151 21.9732H126.48Z" fill="#1E1E1F" style="fill:#1E1E1F;fill:color(display-p3 0.1176 0.1176 0.1216);fill-opacity:1;"/>
<path d="M134.713 19.6534H138.216V29.6088H134.713V19.6534Z" fill="#1E1E1F" style="fill:#1E1E1F;fill:color(display-p3 0.1176 0.1176 0.1216);fill-opacity:1;"/>
<path d="M140.336 19.6534H143.631L147.414 25.0775L147.297 22.8708V19.6534H150.651V29.6088H147.357L143.58 24.1823L143.698 26.4467V29.6088H140.343L140.336 19.6534Z" fill="#1E1E1F" style="fill:#1E1E1F;fill:color(display-p3 0.1176 0.1176 0.1216);fill-opacity:1;"/>
<path d="M158.177 26.2951V24.1293H162.989V29.6352H160.727L160.578 28.6726C160.276 28.9901 159.921 29.2516 159.529 29.4451C158.867 29.7514 158.144 29.902 157.415 29.8855C155.778 29.8855 154.486 29.393 153.541 28.4079C152.654 27.4871 152.211 26.2839 152.211 24.7983C152.211 23.2325 152.659 21.9652 153.555 20.9962C154.552 19.9181 155.962 19.3791 157.784 19.3791C159.155 19.3791 160.288 19.6999 161.184 20.3416C161.627 20.6616 162.001 21.0675 162.285 21.5355C162.569 22.0034 162.756 22.5238 162.835 23.0657H159.51C159.412 22.7199 159.211 22.4129 158.932 22.1874C158.585 21.9205 158.156 21.7828 157.72 21.7975C157.429 21.787 157.141 21.85 156.881 21.9808C156.622 22.1116 156.399 22.3059 156.234 22.5459C155.875 23.044 155.695 23.7708 155.695 24.7309C155.695 25.5331 155.848 26.1611 156.155 26.6152C156.529 27.1686 157.12 27.4454 157.928 27.4454C158.331 27.4484 158.725 27.3357 159.066 27.1205C159.384 26.9389 159.617 26.6388 159.716 26.2855L158.177 26.2951Z" fill="#1E1E1F" style="fill:#1E1E1F;fill:color(display-p3 0.1176 0.1176 0.1216);fill-opacity:1;"/>
<path d="M21.2888 0.245705H0.936152L0.890625 0.289023V10.0903L7.02708 3.92992L7.12293 3.83126L8.42881 2.51977L8.9943 1.95185C9.68143 1.39974 10.5509 1.1288 11.4286 1.19333C12.3062 1.25787 13.1272 1.65311 13.7269 2.29985C14.3266 2.94659 14.6608 3.79706 14.6626 4.68083C14.6643 5.56459 14.3334 6.41638 13.7362 7.06548L13.523 7.27965L12.0326 8.77885L11.9631 8.84864L0.893022 19.9663V29.7676L30.2886 0.245705H21.2888Z" fill="#1E1E1F" style="fill:#1E1E1F;fill:color(display-p3 0.1176 0.1176 0.1216);fill-opacity:1;"/>
<path d="M24.855 29.7676H45.2101L45.2532 29.7218V19.9205L39.1095 26.0833L39.0113 26.182L37.7054 27.4935L37.1399 28.0614C36.4524 28.6101 35.5842 28.8782 34.7085 28.8122C33.8328 28.7463 33.0141 28.3511 32.4158 27.7055C31.8175 27.06 31.4836 26.2116 31.4807 25.3297C31.4779 24.4478 31.8063 23.5972 32.4004 22.9478L32.6161 22.7336L34.1088 21.2344L34.1783 21.1646L45.246 10.0446V0.245683L15.8672 29.7676H24.855Z" fill="#1E1E1F" style="fill:#1E1E1F;fill:color(display-p3 0.1176 0.1176 0.1216);fill-opacity:1;"/>
<path d="M48.4863 19.6534H57.1794V21.9732H51.9918V23.4171H56.36V25.7368H51.9918V27.2986H57.3879V29.6184H48.4863V19.6534Z" fill="#1E1E1F" style="fill:#1E1E1F;fill:color(display-p3 0.1176 0.1176 0.1216);fill-opacity:1;"/>
<path d="M34.2137 0.245683L4.83008 29.77H11.8795L41.2631 0.245683H34.2137Z" fill="#FFCF2F" style="fill:#FFCF2F;fill:color(display-p3 1.0000 0.8118 0.1843);fill-opacity:1;"/>
</g>
<defs>
<clipPath id="clip0_4231_7652">
<rect width="162.093" height="29.6398" fill="white" style="fill:white;fill-opacity:1;" transform="translate(0.890625 0.245705)"/>
</clipPath>
</defs>
</svg>
