<svg width="32" height="33" viewBox="0 0 32 33" fill="none" xmlns="http://www.w3.org/2000/svg">
<path d="M28 19.4733C28 19.7385 27.8946 19.9928 27.7071 20.1804C27.5196 20.3679 27.2652 20.4733 27 20.4733H24V22.4733H26C26.2652 22.4733 26.5196 22.5786 26.7071 22.7662C26.8946 22.9537 27 23.208 27 23.4733C27 23.7385 26.8946 23.9928 26.7071 24.1804C26.5196 24.3679 26.2652 24.4733 26 24.4733H24V26.4733C24 26.7385 23.8946 26.9928 23.7071 27.1804C23.5196 27.3679 23.2652 27.4733 23 27.4733C22.7348 27.4733 22.4804 27.3679 22.2929 27.1804C22.1054 26.9928 22 26.7385 22 26.4733V19.4733C22 19.208 22.1054 18.9537 22.2929 18.7662C22.4804 18.5786 22.7348 18.4733 23 18.4733H27C27.2652 18.4733 27.5196 18.5786 27.7071 18.7662C27.8946 18.9537 28 19.208 28 19.4733ZM11.5 21.9733C11.5 22.9015 11.1313 23.7918 10.4749 24.4481C9.8185 25.1045 8.92826 25.4733 8 25.4733H7V26.4733C7 26.7385 6.89464 26.9928 6.70711 27.1804C6.51957 27.3679 6.26522 27.4733 6 27.4733C5.73478 27.4733 5.48043 27.3679 5.29289 27.1804C5.10536 26.9928 5 26.7385 5 26.4733V19.4733C5 19.208 5.10536 18.9537 5.29289 18.7662C5.48043 18.5786 5.73478 18.4733 6 18.4733H8C8.92826 18.4733 9.8185 18.842 10.4749 19.4984C11.1313 20.1548 11.5 21.045 11.5 21.9733ZM9.5 21.9733C9.5 21.5754 9.34196 21.1939 9.06066 20.9126C8.77936 20.6313 8.39782 20.4733 8 20.4733H7V23.4733H8C8.39782 23.4733 8.77936 23.3152 9.06066 23.0339C9.34196 22.7526 9.5 22.3711 9.5 21.9733ZM20.5 22.9733C20.5 24.1667 20.0259 25.3113 19.182 26.1552C18.3381 26.9992 17.1935 27.4733 16 27.4733H14C13.7348 27.4733 13.4804 27.3679 13.2929 27.1804C13.1054 26.9928 13 26.7385 13 26.4733V19.4733C13 19.208 13.1054 18.9537 13.2929 18.7662C13.4804 18.5786 13.7348 18.4733 14 18.4733H16C17.1935 18.4733 18.3381 18.9474 19.182 19.7913C20.0259 20.6352 20.5 21.7798 20.5 22.9733ZM18.5 22.9733C18.5 22.3102 18.2366 21.6743 17.7678 21.2055C17.2989 20.7367 16.663 20.4733 16 20.4733H15V25.4733H16C16.663 25.4733 17.2989 25.2099 17.7678 24.741C18.2366 24.2722 18.5 23.6363 18.5 22.9733ZM5 14.4733V5.47327C5 4.94283 5.21071 4.43413 5.58579 4.05905C5.96086 3.68398 6.46957 3.47327 7 3.47327H19C19.1314 3.47316 19.2615 3.49894 19.3829 3.54913C19.5042 3.59932 19.6146 3.67293 19.7075 3.76577L26.7075 10.7658C26.8003 10.8587 26.8739 10.969 26.9241 11.0904C26.9743 11.2118 27.0001 11.3419 27 11.4733V14.4733C27 14.7385 26.8946 14.9928 26.7071 15.1804C26.5196 15.3679 26.2652 15.4733 26 15.4733C25.7348 15.4733 25.4804 15.3679 25.2929 15.1804C25.1054 14.9928 25 14.7385 25 14.4733V12.4733H19C18.7348 12.4733 18.4804 12.3679 18.2929 12.1804C18.1054 11.9928 18 11.7385 18 11.4733V5.47327H7V14.4733C7 14.7385 6.89464 14.9928 6.70711 15.1804C6.51957 15.3679 6.26522 15.4733 6 15.4733C5.73478 15.4733 5.48043 15.3679 5.29289 15.1804C5.10536 14.9928 5 14.7385 5 14.4733ZM20 10.4733H23.5863L20 6.88702V10.4733Z" fill="#1E1E1F" style="fill:#1E1E1F;fill:color(display-p3 0.1176 0.1176 0.1216);fill-opacity:1;"/>
</svg>
